<svg xmlns="http://www.w3.org/2000/svg" xmlns:xlink="http://www.w3.org/1999/xlink" width="2048" zoomAndPan="magnify" viewBox="0 0 1536 1535.999932" height="2048" preserveAspectRatio="xMidYMid meet" version="1.0"><defs><filter x="0%" y="0%" width="100%" height="100%" id="9a3d605da1"><feColorMatrix values="0 0 0 0 1 0 0 0 0 1 0 0 0 0 1 0 0 0 1 0" color-interpolation-filters="sRGB"/></filter><mask id="3bb6c496dc"><g filter="url(#9a3d605da1)"><rect x="-153.6" width="1843.2" fill="#000000" y="-153.599993" height="1843.199919" fill-opacity="0.33"/></g></mask><clipPath id="7a32d12404"><path d="M 158 67 L 1130 67 L 1130 1473 L 158 1473 Z M 158 67 " clip-rule="nonzero"/></clipPath><clipPath id="74e47640a5"><path d="M -78.722656 371.613281 L 894.972656 -158.191406 L 1614.761719 1164.660156 L 641.066406 1694.464844 Z M -78.722656 371.613281 " clip-rule="nonzero"/></clipPath><clipPath id="f4cf091a3e"><path d="M -78.722656 371.613281 L 894.972656 -158.191406 L 1614.761719 1164.660156 L 641.066406 1694.464844 Z M -78.722656 371.613281 " clip-rule="nonzero"/></clipPath><clipPath id="96124bccde"><path d="M -78.710938 371.636719 L 503.667969 54.753906 L 1223.3125 1377.339844 L 640.933594 1694.222656 Z M -78.710938 371.636719 " clip-rule="nonzero"/></clipPath><clipPath id="17cd3732a7"><path d="M 543 51 L 1378 51 L 1378 1362 L 543 1362 Z M 543 51 " clip-rule="nonzero"/></clipPath><clipPath id="ab439c3467"><path d="M -78.722656 371.613281 L 894.972656 -158.191406 L 1614.761719 1164.660156 L 641.066406 1694.464844 Z M -78.722656 371.613281 " clip-rule="nonzero"/></clipPath><clipPath id="b8018ee452"><path d="M -78.722656 371.613281 L 894.972656 -158.191406 L 1614.761719 1164.660156 L 641.066406 1694.464844 Z M -78.722656 371.613281 " clip-rule="nonzero"/></clipPath><clipPath id="d9a3e08709"><rect x="0" width="1536" y="0" height="1536"/></clipPath></defs><g mask="url(#3bb6c496dc)"><g transform="matrix(1, 0, 0, 1, 0, -0.000000000000122336)"><g clip-path="url(#d9a3e08709)"><g clip-path="url(#7a32d12404)"><g clip-path="url(#74e47640a5)"><g clip-path="url(#f4cf091a3e)"><g clip-path="url(#96124bccde)"><path fill="#b08a5a" d="M 1116.765625 1321.722656 C 1125.910156 1346.949219 1130.058594 1373.738281 1129.28125 1400.5625 C 1129.277344 1400.730469 1129.273438 1400.886719 1129.265625 1401.054688 C 1128.6875 1420.417969 1117.632812 1437.386719 1097.960938 1445.042969 C 840.386719 1545.339844 463.554688 1368.222656 275.78125 1023.125 C 76.777344 657.394531 133.441406 279.273438 422.265625 99.417969 C 444.964844 85.289062 470.214844 76.457031 495.351562 68.753906 C 507.675781 64.972656 518.742188 74.613281 515.984375 86.574219 C 456.5 344.5 452.140625 546.796875 584.8125 752.34375 C 632.332031 825.957031 711.527344 906.382812 794.992188 978.660156 C 873.097656 1046.964844 1052.304688 1143.964844 1116.765625 1321.722656 " fill-opacity="1" fill-rule="nonzero"/></g></g></g></g><g clip-path="url(#17cd3732a7)"><g clip-path="url(#ab439c3467)"><g clip-path="url(#b8018ee452)"><path fill="#b08a5a" d="M 1255.613281 504.421875 C 1426.375 818.25 1413.59375 1165.96875 1241.332031 1348.210938 C 1219.152344 1371.671875 1179.898438 1361.640625 1171.175781 1330.554688 C 1156.089844 1276.757812 1136.355469 1223.917969 1107.695312 1175.371094 C 958.222656 922.171875 795.003906 905.046875 689.070312 742.863281 C 590.460938 591.894531 528.355469 434.417969 546.359375 168.839844 C 548.316406 139.976562 553.488281 111.402344 561.867188 83.699219 C 563.222656 66.429688 578.640625 52.390625 596.769531 51.527344 C 830.851562 40.464844 1097.9375 214.640625 1255.613281 504.421875 " fill-opacity="1" fill-rule="nonzero"/></g></g></g></g></g></g></svg>